<?xml version="1.0" encoding="UTF-8" standalone="no"?>
<!DOCTYPE svg PUBLIC "-//W3C//DTD SVG 1.1//EN" "http://www.w3.org/Graphics/SVG/1.1/DTD/svg11.dtd">
<svg width="100%" height="100%" viewBox="0 0 2048 736" version="1.1" xmlns="http://www.w3.org/2000/svg" xmlns:xlink="http://www.w3.org/1999/xlink" xml:space="preserve" xmlns:serif="http://www.serif.com/" style="fill-rule:evenodd;clip-rule:evenodd;stroke-linejoin:round;stroke-miterlimit:2;">
    <g id="logo.svg" transform="matrix(4.98297,0,0,4.98297,1024,209.285)">
        <g transform="matrix(1,0,0,1,-205.5,-42)">
            <g transform="matrix(1,0,0,1,0.78,0)">
                <g id="Images">
                    <g id="obs-logo-mono">
                        <g id="OPENBIOSIM" transform="matrix(1,0,0,1,94.22,18)">
                            <g id="BIOSIM" transform="matrix(1,0,0,1,160,0)">
                                <path id="Combined-Shape" d="M10.526,1C13.076,1 15.239,1.489 17.013,2.468C18.788,3.447 20.146,4.721 21.089,6.291C22.032,7.861 22.503,9.551 22.503,11.361C22.503,13.171 22.17,14.713 21.505,15.987C20.839,17.261 20.035,18.286 19.093,19.062C18.15,19.838 17.254,20.355 16.403,20.614L16.403,20.946C17.586,21.278 18.76,21.842 19.924,22.636C21.089,23.43 22.059,24.492 22.836,25.822C23.612,27.151 24,28.777 24,30.697C24,32.581 23.547,34.382 22.641,36.099C21.736,37.817 20.313,39.23 18.372,40.338C16.431,41.446 13.89,42 10.748,42L0,42L0,38.232L10.637,38.232C12.781,38.232 14.518,37.854 15.849,37.097C17.18,36.339 18.159,35.37 18.788,34.188C19.416,33.006 19.73,31.787 19.73,30.531C19.73,29.238 19.416,28.01 18.788,26.847C18.159,25.683 17.18,24.723 15.849,23.966C14.518,23.208 12.781,22.83 10.637,22.83L0,22.829L0,19.339L10.359,19.339C12.208,19.339 13.723,18.979 14.906,18.259C16.089,17.539 16.958,16.624 17.512,15.516C18.067,14.408 18.344,13.245 18.344,12.026C18.344,10.807 18.067,9.643 17.512,8.535C16.958,7.427 16.089,6.522 14.906,5.82C13.723,5.118 12.208,4.768 10.359,4.768L0,4.767L0,1L10.526,1Z" style="fill:white;fill-rule:nonzero;"/>
                                <rect id="Path" x="26" y="1" width="4" height="41" style="fill:white;fill-rule:nonzero;"/>
                                <path id="Shape" d="M52.5,42C49.305,42 46.487,41.401 44.044,40.204C41.602,39.007 39.564,37.404 37.93,35.396C36.296,33.388 35.066,31.132 34.239,28.626C33.413,26.121 33,23.561 33,20.945C33,18.366 33.413,15.824 34.239,13.318C35.066,10.813 36.296,8.557 37.93,6.549C39.564,4.541 41.602,2.947 44.044,1.768C46.487,0.589 49.305,0 52.5,0C55.695,0 58.504,0.589 60.928,1.768C63.352,2.947 65.381,4.541 67.015,6.549C68.649,8.557 69.888,10.813 70.733,13.318C71.578,15.824 72,18.366 72,20.945C72,23.561 71.578,26.121 70.733,28.626C69.888,31.132 68.649,33.388 67.015,35.396C65.381,37.404 63.352,39.007 60.928,40.204C58.504,41.401 55.695,42 52.5,42ZM52.5,38.021C55.475,38.021 58.1,37.275 60.377,35.783C62.654,34.291 64.435,32.255 65.72,29.676C67.006,27.097 67.648,24.187 67.648,20.945C67.648,17.739 67.006,14.857 65.72,12.296C64.435,9.736 62.654,7.709 60.377,6.217C58.1,4.725 55.475,3.979 52.5,3.979C49.489,3.979 46.845,4.725 44.568,6.217C42.291,7.709 40.51,9.736 39.225,12.296C37.939,14.857 37.297,17.739 37.297,20.945C37.297,24.187 37.939,27.097 39.225,29.676C40.51,32.255 42.291,34.291 44.568,35.783C46.845,37.275 49.489,38.021 52.5,38.021Z" style="fill:white;fill-rule:nonzero;"/>
                                <path id="Path1" serif:id="Path" d="M90.087,42C87.665,42 85.607,41.696 83.912,41.088C82.217,40.48 80.82,39.697 79.722,38.739C78.623,37.782 77.747,36.768 77.095,35.7C76.443,34.632 75.969,33.618 75.671,32.661C75.373,31.703 75.186,30.92 75.112,30.312C75.037,29.704 75,29.4 75,29.4L79.358,29.4C79.358,29.4 79.405,29.695 79.498,30.284C79.591,30.874 79.815,31.601 80.169,32.467C80.522,33.333 81.091,34.199 81.873,35.064C82.655,35.93 83.717,36.649 85.058,37.22C86.399,37.791 88.112,38.076 90.198,38.076C93.03,38.076 95.32,37.358 97.071,35.921C98.822,34.484 99.697,32.624 99.697,30.339C99.697,28.203 98.999,26.582 97.602,25.476C96.205,24.371 94.371,23.542 92.098,22.989L86.79,21.718C84.778,21.203 82.972,20.512 81.37,19.646C79.768,18.78 78.502,17.657 77.57,16.275C76.639,14.893 76.173,13.189 76.173,11.163C76.173,8.842 76.751,6.853 77.906,5.195C79.06,3.537 80.625,2.257 82.599,1.354C84.574,0.451 86.827,0 89.36,0C91.893,0 93.979,0.387 95.618,1.161C97.258,1.934 98.561,2.883 99.53,4.007C100.498,5.13 101.215,6.263 101.681,7.405C102.147,8.547 102.445,9.505 102.575,10.279C102.706,11.053 102.771,11.439 102.771,11.439L98.524,11.439C98.524,11.439 98.487,11.182 98.412,10.666C98.338,10.15 98.142,9.514 97.826,8.759C97.509,8.004 97.015,7.249 96.345,6.493C95.674,5.738 94.762,5.103 93.607,4.587C92.452,4.071 90.999,3.813 89.249,3.813C86.343,3.813 84.145,4.522 82.655,5.941C81.165,7.359 80.42,9.008 80.42,10.887C80.42,12.618 81.025,14 82.236,15.032C83.447,16.063 85.132,16.837 87.293,17.353L92.936,18.734C95.06,19.25 96.95,19.987 98.608,20.945C100.266,21.903 101.579,23.137 102.547,24.647C103.516,26.158 104,27.982 104,30.118C104,32.255 103.451,34.226 102.352,36.032C101.253,37.837 99.67,39.283 97.602,40.37C95.535,41.457 93.03,42 90.087,42Z" style="fill:white;fill-rule:nonzero;"/>
                                <rect id="Path2" serif:id="Path" x="108" y="1" width="4" height="41" style="fill:white;fill-rule:nonzero;"/>
                                <path id="Combined-Shape1" serif:id="Combined-Shape" d="M126.706,1L137,26.597L150.294,1L156,1L156,42L151.79,42L151.79,7.095L138.994,31.473L135.006,31.473L124,5.686L124,42L120,42L120,1L126.706,1Z" style="fill:white;fill-rule:nonzero;"/>
                            </g>
                            <g id="OPEN">
                                <path id="Shape1" serif:id="Shape" d="M21.028,42C17.523,42 14.461,41.401 11.842,40.204C9.223,39.007 7.037,37.404 5.285,35.396C3.532,33.388 2.213,31.132 1.328,28.626C0.443,26.121 0,23.561 0,20.945C0,18.329 0.443,15.778 1.328,13.291C2.213,10.804 3.532,8.566 5.285,6.576C7.037,4.587 9.223,2.993 11.842,1.796C14.461,0.599 17.523,0 21.028,0C24.495,0 27.539,0.599 30.158,1.796C32.777,2.993 34.963,4.587 36.715,6.576C38.468,8.566 39.787,10.804 40.672,13.291C41.557,15.778 42,18.329 42,20.945C42,23.561 41.557,26.121 40.672,28.626C39.787,31.132 38.468,33.388 36.715,35.396C34.963,37.404 32.777,39.007 30.158,40.204C27.539,41.401 24.495,42 21.028,42ZM21.028,33.434C23.426,33.434 25.445,32.826 27.087,31.611C28.729,30.395 29.964,28.838 30.794,26.941C31.625,25.043 32.04,23.045 32.04,20.945C32.04,18.882 31.625,16.901 30.794,15.004C29.964,13.107 28.729,11.55 27.087,10.334C25.445,9.118 23.426,8.511 21.028,8.511C18.593,8.511 16.555,9.118 14.913,10.334C13.271,11.55 12.045,13.107 11.233,15.004C10.422,16.901 10.016,18.882 10.016,20.945C10.016,23.045 10.422,25.043 11.233,26.941C12.045,28.838 13.271,30.395 14.913,31.611C16.555,32.826 18.593,33.434 21.028,33.434Z" style="fill:white;fill-rule:nonzero;"/>
                                <path id="Shape2" serif:id="Shape" d="M45,42L45,1L62.633,1C66.06,1 68.916,1.665 71.201,2.995C73.486,4.324 75.19,6.042 76.314,8.147C77.438,10.253 78,12.45 78,14.741C78,17.068 77.438,19.284 76.314,21.389C75.19,23.495 73.486,25.221 71.201,26.57C68.916,27.918 66.06,28.592 62.633,28.592L54.563,28.592L54.563,42L45,42ZM62.578,9.366L54.563,9.366L54.563,20.281L62.578,20.281C64.531,20.281 65.987,19.709 66.945,18.564C67.903,17.418 68.382,16.163 68.382,14.796C68.382,13.429 67.903,12.183 66.945,11.056C65.987,9.93 64.531,9.366 62.578,9.366Z" style="fill:white;fill-rule:nonzero;"/>
                                <path id="Path3" serif:id="Path" d="M80,42L80,1L108.725,1L108.725,9.311L89.502,9.311L89.502,17.234L106.254,17.234L106.254,25.157L89.502,25.157L89.502,33.689L109,33.689L109,42L80,42Z" style="fill:white;fill-rule:nonzero;"/>
                                <path id="Path4" serif:id="Path" d="M112,42L112,1L120.89,1L137.439,25.434L137.439,1L147,1L147,42L138.054,42L121.617,18.508L121.617,42L112,42Z" style="fill:white;fill-rule:nonzero;"/>
                            </g>
                        </g>
                        <g id="Emblem---Mono" serif:id="Emblem-/-Mono">
                            <path id="Emblem-Colour" d="M32.184,0L44.777,6.995L44.777,19.004L54.403,25.133L64.367,19.6L76.961,26.595L76.961,40.605L64.367,47.6L54.349,42.036L44.777,47.748L44.777,71.056L22.388,84L0,71.033L0,45.144L22.388,32.2L43.297,44.288L51.773,39.231L51.773,27.872L42.753,22.129L32.184,28L19.59,21.005L19.59,6.995L32.184,0ZM22.388,36.327L3.582,47.208L3.582,68.969L22.388,79.85L41.195,68.969L41.195,47.208L22.388,36.327ZM64.367,23.606L55.372,28.608L55.372,38.613L64.367,43.616L73.362,38.613L73.362,28.608L64.367,23.606ZM32.184,3.985L23.189,8.987L23.189,18.992L32.184,23.994L41.179,18.992L41.179,8.987L32.184,3.985Z" style="fill:white;fill-rule:nonzero;"/>
                        </g>
                    </g>
                </g>
            </g>
        </g>
    </g>
    <g id="icon_sire.svg" transform="matrix(5.62365,0.0157307,-0.0157307,5.62365,1121.11,1089.84)">
        <g transform="matrix(1,0,0,1,-128,-128)">
            <g id="Images1" serif:id="Images">
                <g id="obs-logo-sire">
                    <g id="icon-sire">
                        <path id="Path5" serif:id="Path" d="M30.94,6.216L30.94,12.041C30.104,12.523 29.696,13.507 29.946,14.44C30.196,15.372 31.041,16.021 32.006,16.021C32.972,16.021 33.817,15.372 34.067,14.44C34.316,13.507 33.909,12.523 33.073,12.041L33.073,6.216C34.542,5.696 35.423,4.194 35.16,2.658C34.896,1.123 33.565,0 32.006,0C30.448,0 29.117,1.123 28.853,2.658C28.59,4.194 29.471,5.696 30.94,6.216Z" style="fill:white;fill-rule:nonzero;"/>
                        <path id="Path6" serif:id="Path" d="M33.073,57.797L33.073,51.972C33.909,51.489 34.316,50.505 34.067,49.573C33.817,48.641 32.972,47.992 32.006,47.992C31.041,47.992 30.196,48.641 29.946,49.573C29.696,50.505 30.104,51.489 30.94,51.972L30.94,57.797C29.471,58.316 28.59,59.819 28.853,61.354C29.117,62.89 30.448,64.013 32.006,64.013C33.565,64.013 34.896,62.89 35.16,61.354C35.423,59.819 34.542,58.316 33.073,57.797Z" style="fill:white;fill-rule:nonzero;"/>
                        <path id="Path7" serif:id="Path" d="M60.8,28.807C59.448,28.809 58.245,29.664 57.797,30.94L46.936,30.94L46.936,26.523C46.144,26.318 45.428,25.888 44.875,25.286L36.142,29.943C36.225,30.269 36.269,30.604 36.272,30.94C36.265,32.879 34.95,34.569 33.073,35.054L33.073,46.021C33.865,46.226 34.581,46.656 35.134,47.259L43.867,42.6C43.784,42.275 43.741,41.94 43.737,41.604C43.744,39.665 45.059,37.975 46.936,37.49L46.936,33.073L57.797,33.073C58.342,34.603 59.948,35.48 61.53,35.112C63.112,34.744 64.165,33.247 63.979,31.634C63.792,30.02 62.424,28.804 60.8,28.807Z" style="fill:white;fill-rule:nonzero;"/>
                        <path id="Path8" serif:id="Path" d="M28.878,28.061C29.678,27.177 30.814,26.673 32.006,26.673C33.198,26.673 34.334,27.177 35.134,28.061L43.867,23.404C43.694,22.751 43.694,22.064 43.867,21.41L35.134,16.756C34.334,17.64 33.198,18.144 32.006,18.144C30.814,18.144 29.677,17.64 28.877,16.756L20.145,21.414C20.319,22.067 20.319,22.754 20.145,23.407L28.878,28.061Z" style="fill:white;fill-rule:nonzero;"/>
                        <circle id="Oval" cx="48.003" cy="22.408" r="2.133" style="fill:white;"/>
                        <circle id="Oval1" serif:id="Oval" cx="32.006" cy="30.94" r="2.133" style="fill:white;"/>
                        <circle id="Oval2" serif:id="Oval" cx="16.01" cy="22.408" r="2.133" style="fill:white;"/>
                        <path id="Path9" serif:id="Path" d="M28.878,47.256C29.432,46.655 30.148,46.226 30.94,46.021L30.94,35.054C29.852,34.789 28.915,34.099 28.339,33.139C27.762,32.179 27.594,31.028 27.871,29.943L19.139,25.288C18.585,25.89 17.868,26.318 17.076,26.523L17.076,30.94L6.216,30.94C5.696,29.471 4.194,28.59 2.658,28.853C1.123,29.117 0,30.448 0,32.006C0,33.565 1.123,34.896 2.658,35.16C4.194,35.423 5.696,34.542 6.216,33.073L17.076,33.073L17.076,37.49C18.164,37.755 19.101,38.445 19.678,39.405C20.254,40.365 20.423,41.516 20.145,42.601L28.878,47.256Z" style="fill:white;fill-rule:nonzero;"/>
                        <circle id="Oval3" serif:id="Oval" cx="48.003" cy="41.604" r="2.133" style="fill:white;"/>
                        <circle id="Oval4" serif:id="Oval" cx="16.01" cy="41.604" r="2.133" style="fill:white;"/>
                    </g>
                </g>
            </g>
        </g>
    </g>
    <g transform="matrix(13.7804,0,0,13.7804,-10351.2,-6039.82)">
        <g transform="matrix(23.0274,0,0,23.0274,809.532,486.834)">
            <path d="M0.675,-0.229C0.675,-0.157 0.644,-0.099 0.584,-0.054C0.523,-0.009 0.441,0.013 0.336,0.013C0.276,0.013 0.224,0.008 0.179,-0.003C0.134,-0.013 0.092,-0.027 0.053,-0.043L0.053,-0.217L0.074,-0.217C0.112,-0.186 0.156,-0.163 0.204,-0.146C0.252,-0.129 0.298,-0.121 0.342,-0.121C0.354,-0.121 0.369,-0.122 0.387,-0.124C0.406,-0.126 0.421,-0.129 0.433,-0.134C0.447,-0.14 0.459,-0.147 0.468,-0.156C0.477,-0.165 0.482,-0.178 0.482,-0.195C0.482,-0.211 0.475,-0.225 0.462,-0.236C0.448,-0.248 0.428,-0.257 0.402,-0.263C0.375,-0.269 0.346,-0.275 0.316,-0.281C0.285,-0.287 0.257,-0.294 0.23,-0.303C0.169,-0.323 0.125,-0.35 0.098,-0.384C0.071,-0.418 0.058,-0.46 0.058,-0.51C0.058,-0.578 0.088,-0.633 0.149,-0.676C0.209,-0.719 0.287,-0.74 0.383,-0.74C0.431,-0.74 0.478,-0.736 0.525,-0.726C0.571,-0.717 0.612,-0.705 0.646,-0.691L0.646,-0.524L0.626,-0.524C0.597,-0.547 0.561,-0.567 0.518,-0.583C0.476,-0.599 0.432,-0.606 0.388,-0.606C0.373,-0.606 0.357,-0.605 0.342,-0.603C0.326,-0.601 0.311,-0.597 0.297,-0.591C0.284,-0.586 0.273,-0.579 0.264,-0.569C0.255,-0.559 0.25,-0.548 0.25,-0.535C0.25,-0.516 0.258,-0.501 0.272,-0.491C0.287,-0.481 0.315,-0.471 0.355,-0.463C0.382,-0.457 0.408,-0.452 0.432,-0.447C0.457,-0.442 0.483,-0.434 0.512,-0.425C0.567,-0.407 0.608,-0.382 0.635,-0.351C0.662,-0.319 0.675,-0.279 0.675,-0.229Z" style="fill:white;fill-rule:nonzero;"/>
        </g>
        <g transform="matrix(23.0274,0,0,23.0274,825.892,486.834)">
            <path d="M0.486,-0L0.06,-0L0.06,-0.129L0.179,-0.129L0.179,-0.598L0.06,-0.598L0.06,-0.727L0.486,-0.727L0.486,-0.598L0.367,-0.598L0.367,-0.129L0.486,-0.129L0.486,-0Z" style="fill:white;fill-rule:nonzero;"/>
        </g>
        <g transform="matrix(23.0274,0,0,23.0274,838.462,486.834)">
            <path d="M0.5,-0.504C0.5,-0.523 0.497,-0.538 0.489,-0.551C0.482,-0.564 0.469,-0.575 0.451,-0.582C0.438,-0.587 0.423,-0.59 0.406,-0.592C0.389,-0.593 0.37,-0.593 0.347,-0.593L0.279,-0.593L0.279,-0.397L0.337,-0.397C0.367,-0.397 0.392,-0.399 0.412,-0.402C0.432,-0.405 0.449,-0.411 0.463,-0.422C0.476,-0.432 0.485,-0.443 0.491,-0.455C0.497,-0.468 0.5,-0.484 0.5,-0.504ZM0.793,-0L0.564,-0L0.366,-0.267L0.279,-0.267L0.279,-0L0.093,-0L0.093,-0.727L0.407,-0.727C0.45,-0.727 0.487,-0.725 0.518,-0.72C0.549,-0.715 0.578,-0.704 0.605,-0.688C0.632,-0.672 0.654,-0.651 0.67,-0.625C0.686,-0.599 0.694,-0.566 0.694,-0.527C0.694,-0.474 0.682,-0.43 0.657,-0.396C0.632,-0.362 0.597,-0.334 0.55,-0.312L0.793,-0Z" style="fill:white;fill-rule:nonzero;"/>
        </g>
        <g transform="matrix(23.0274,0,0,23.0274,856.475,486.834)">
            <path d="M0.619,-0L0.093,-0L0.093,-0.727L0.619,-0.727L0.619,-0.586L0.279,-0.586L0.279,-0.461L0.594,-0.461L0.594,-0.32L0.279,-0.32L0.279,-0.141L0.619,-0.141L0.619,-0Z" style="fill:white;fill-rule:nonzero;"/>
        </g>
    </g>
</svg>
