<?xml version="1.0" encoding="UTF-8" standalone="no"?><!DOCTYPE svg PUBLIC "-//W3C//DTD SVG 1.1//EN" "http://www.w3.org/Graphics/SVG/1.1/DTD/svg11.dtd"><svg width="100%" height="100%" viewBox="0 0 2048 2048" version="1.1" xmlns="http://www.w3.org/2000/svg" xmlns:xlink="http://www.w3.org/1999/xlink" xml:space="preserve" xmlns:serif="http://www.serif.com/" style="fill-rule:evenodd;clip-rule:evenodd;stroke-linecap:round;stroke-linejoin:round;stroke-miterlimit:1.5;"><path d="M2029.89,129.123c-0,-59.273 -48.05,-107.323 -107.323,-107.323l-1797.82,-0c-59.273,-0 -107.323,48.05 -107.323,107.323l0,1798.15c0,59.273 48.05,107.323 107.323,107.323l1797.82,0c59.273,0 107.323,-48.05 107.323,-107.323l-0,-1798.15Z" style="fill:#0031a1;"/><g><g transform="matrix(1,-0.00067692,0.00067692,1,0.755111,-1.17273)"><text x="115.168px" y="1602.68px" style="font-family:'DINAlternate-Bold', 'DIN Alternate', sans-serif;font-weight:700;font-size:1166.68px;fill:#fff;">sir<tspan x="1387.81px " y="1602.68px ">e</tspan></text></g><g><g><path d="M927.491,233.932c178.203,91.811 248.558,311.309 157.014,489.857c-91.545,178.549 -310.545,248.968 -488.747,157.156c-178.203,-91.811 -248.558,-311.309 -157.014,-489.857c91.544,-178.549 310.545,-248.968 488.747,-157.156Z" style="fill:#fff;"/><path d="M613.747,257.676c97.246,50.102 129.619,181.625 72.247,293.523c-57.372,111.898 -182.902,162.068 -280.148,111.966c-97.246,-50.102 -129.619,-181.625 -72.247,-293.523c57.371,-111.898 182.901,-162.068 280.148,-111.966Z" style="fill:#fff;stroke:#fff;stroke-width:0.5px;"/><path d="M848.339,145.784c101.077,-41.714 221.986,18.879 269.835,135.227c47.85,116.348 4.636,244.675 -96.44,286.389c-101.077,41.714 -221.986,-18.879 -269.836,-135.227c-47.849,-116.349 -4.636,-244.675 96.441,-286.389Z" style="fill:#fff;stroke:#fff;stroke-width:0.5px;"/></g><g><path d="M911.399,262.382c160.586,82.735 223.986,280.534 141.491,441.432c-82.494,160.897 -279.845,224.355 -440.431,141.62c-160.586,-82.736 -223.986,-280.535 -141.491,-441.432c82.494,-160.898 279.845,-224.355 440.431,-141.62Z" style="fill:#0031a1;stroke:#0031a1;stroke-width:0.5px;"/><path d="M628.67,283.779c87.633,45.149 116.805,163.67 65.105,264.506c-51.7,100.836 -164.82,146.047 -252.453,100.898c-87.633,-45.15 -116.806,-163.671 -65.105,-264.507c51.7,-100.836 164.82,-146.046 252.453,-100.897Z" style="fill:#0031a1;stroke:#0031a1;stroke-width:0.5px;"/><path d="M840.071,182.948c91.085,-37.59 200.041,17.013 243.16,121.859c43.12,104.847 4.178,220.487 -86.906,258.078c-91.085,37.59 -200.041,-17.013 -243.161,-121.86c-43.119,-104.846 -4.177,-220.487 86.907,-258.077Z" style="fill:#0031a1;stroke:#0031a1;stroke-width:0.5px;"/></g><g><path d="M890.329,308.293c133.39,68.724 186.053,233.024 117.529,366.672c-68.523,133.649 -232.451,186.36 -365.84,117.636c-133.39,-68.723 -186.053,-233.024 -117.53,-366.672c68.524,-133.648 232.452,-186.359 365.841,-117.636Z" style="fill:#fff;stroke:#fff;stroke-width:0.5px;"/><path d="M655.483,326.066c72.791,37.503 97.023,135.952 54.079,219.711c-42.944,83.759 -136.907,121.312 -209.699,83.81c-72.791,-37.503 -97.023,-135.952 -54.079,-219.711c42.944,-83.759 136.907,-121.312 209.699,-83.81Z" style="fill:#fff;stroke:#fff;stroke-width:0.5px;"/><path d="M831.082,242.312c75.658,-31.224 166.162,14.132 201.979,101.222c35.817,87.09 3.47,183.146 -72.188,214.37c-75.659,31.224 -166.163,-14.132 -201.98,-101.222c-35.817,-87.09 -3.47,-183.146 72.189,-214.37Z" style="fill:#fff;stroke:#fff;stroke-width:0.5px;"/></g></g></g><g transform="matrix(5.76888,0,0,5.76888,-2519.02,-4938.61)"><text x="460.404px" y="1175.01px" style="font-family:'DINAlternate-Bold', 'DIN Alternate', sans-serif;font-weight:700;font-size:35.495px;fill:#fff;">molecular</text><text x="619.335px" y="1175.01px" style="font-family:'DINAlternate-Bold', 'DIN Alternate', sans-serif;font-weight:700;font-size:35.495px;fill:#ebebeb;">modelling</text></g></svg>