<?xml version="1.0" encoding="UTF-8"?>
<svg width="411px" height="84px" viewBox="0 0 411 84" version="1.1" xmlns="http://www.w3.org/2000/svg" xmlns:xlink="http://www.w3.org/1999/xlink">
    <title>obs-logo-mono</title>
    <g id="Images" stroke="none" stroke-width="1" fill="none" fill-rule="evenodd">
        <g id="obs-logo-mono" transform="translate(0.780000, 0.000000)" fill="#FFFFFF" fill-rule="nonzero">
            <g id="OPENBIOSIM" transform="translate(94.220000, 18.000000)">
                <g id="BIOSIM" transform="translate(160.000000, 0.000000)">
                    <path d="M10.5258126,1 C13.0764818,1 15.2390057,1.48941441 17.0133843,2.46824324 C18.7877629,3.44707207 20.1462715,4.7213964 21.0889101,6.29121622 C22.0315488,7.86103604 22.5028681,9.5509009 22.5028681,11.3608108 C22.5028681,13.1707207 22.1701721,14.7128378 21.5047801,15.9871622 C20.8393881,17.2614865 20.0353728,18.2864865 19.0927342,19.0621622 C18.1500956,19.8378378 17.2536648,20.354955 16.4034417,20.6135135 L16.4034417,20.9459459 C17.5863607,21.2783784 18.7600382,21.8416667 19.9244742,22.6358108 C21.0889101,23.429955 22.0592734,24.4918919 22.8355641,25.8216216 C23.6118547,27.1513514 24,28.7765766 24,30.6972973 C24,32.5810811 23.5471638,34.3817568 22.6414914,36.0993243 C21.735819,37.8168919 20.3126195,39.2297297 18.3718929,40.3378378 C16.4311663,41.4459459 13.8897387,42 10.7476099,42 L0,42 L0,38.232 L10.6367113,38.2324324 C12.7807521,38.2324324 14.5181644,37.8538288 15.8489484,37.0966216 C17.1797323,36.3394144 18.1593372,35.3698198 18.7877629,34.1878378 C19.4161887,33.0058559 19.7304015,31.7869369 19.7304015,30.5310811 C19.7304015,29.2382883 19.4161887,28.0101351 18.7877629,26.8466216 C18.1593372,25.6831081 17.1797323,24.7227477 15.8489484,23.9655405 C14.5181644,23.2083333 12.7807521,22.8297297 10.6367113,22.8297297 L0,22.829 L0,19.339 L10.3594646,19.3391892 C12.2077757,19.3391892 13.7233907,18.9790541 14.9063098,18.2587838 C16.0892288,17.5385135 16.957935,16.6243243 17.5124283,15.5162162 C18.0669216,14.4081081 18.3441683,13.2445946 18.3441683,12.0256757 C18.3441683,10.8067568 18.0669216,9.64324324 17.5124283,8.53513514 C16.957935,7.42702703 16.0892288,6.52207207 14.9063098,5.82027027 C13.7233907,5.11846847 12.2077757,4.76756757 10.3594646,4.76756757 L0,4.767 L0,1 L10.5258126,1 Z" id="Combined-Shape"></path>
                    <polygon id="Path" points="26 42 26 1 30 1 30 42"></polygon>
                    <path d="M52.5,42 C49.3050847,42 46.4865819,41.4013158 44.0444915,40.2039474 C41.6024011,39.0065789 39.5642655,37.4039474 37.9300847,35.3960526 C36.295904,33.3881579 35.065678,31.1315789 34.2394068,28.6263158 C33.4131356,26.1210526 33,23.5605263 33,20.9447368 C33,18.3657895 33.4131356,15.8236842 34.2394068,13.3184211 C35.065678,10.8131579 36.295904,8.55657895 37.9300847,6.54868421 C39.5642655,4.54078947 41.6024011,2.94736842 44.0444915,1.76842105 C46.4865819,0.589473684 49.3050847,0 52.5,0 C55.6949153,0 58.5042373,0.589473684 60.9279661,1.76842105 C63.3516949,2.94736842 65.3806497,4.54078947 67.0148305,6.54868421 C68.6490113,8.55657895 69.8884181,10.8131579 70.7330508,13.3184211 C71.5776836,15.8236842 72,18.3657895 72,20.9447368 C72,23.5605263 71.5776836,26.1210526 70.7330508,28.6263158 C69.8884181,31.1315789 68.6490113,33.3881579 67.0148305,35.3960526 C65.3806497,37.4039474 63.3516949,39.0065789 60.9279661,40.2039474 C58.5042373,41.4013158 55.6949153,42 52.5,42 Z M52.5,38.0210526 C55.4745763,38.0210526 58.1002825,37.275 60.3771186,35.7828947 C62.6539548,34.2907895 64.4350282,32.2552632 65.720339,29.6763158 C67.0056497,27.0973684 67.6483051,24.1868421 67.6483051,20.9447368 C67.6483051,17.7394737 67.0056497,14.8565789 65.720339,12.2960526 C64.4350282,9.73552632 62.6539548,7.70921053 60.3771186,6.21710526 C58.1002825,4.725 55.4745763,3.97894737 52.5,3.97894737 C49.4887006,3.97894737 46.8446328,4.725 44.5677966,6.21710526 C42.2909605,7.70921053 40.509887,9.73552632 39.2245763,12.2960526 C37.9392655,14.8565789 37.2966102,17.7394737 37.2966102,20.9447368 C37.2966102,24.1868421 37.9392655,27.0973684 39.2245763,29.6763158 C40.509887,32.2552632 42.2909605,34.2907895 44.5677966,35.7828947 C46.8446328,37.275 49.4887006,38.0210526 52.5,38.0210526 Z" id="Shape"></path>
                    <path d="M90.0867052,42 C87.6653821,42 85.6072575,41.6960526 83.9123314,41.0881579 C82.2174053,40.4802632 80.8204881,39.6973684 79.72158,38.7394737 C78.6226718,37.7815789 77.7472704,36.7684211 77.0953757,35.7 C76.4434811,34.6315789 75.9685292,33.6184211 75.6705202,32.6605263 C75.3725112,31.7026316 75.1862556,30.9197368 75.1117534,30.3118421 C75.0372511,29.7039474 75,29.4 75,29.4 L79.3583815,29.4 C79.3583815,29.4 79.4049454,29.6947368 79.4980732,30.2842105 C79.591201,30.8736842 79.8147078,31.6013158 80.1685934,32.4671053 C80.5224791,33.3328947 81.0905588,34.1986842 81.8728324,35.0644737 C82.655106,35.9302632 83.716763,36.6486842 85.0578035,37.2197368 C86.3988439,37.7907895 88.1123956,38.0763158 90.1984586,38.0763158 C93.029544,38.0763158 95.3204881,37.3578947 97.0712909,35.9210526 C98.8220938,34.4842105 99.6974952,32.6236842 99.6974952,30.3394737 C99.6974952,28.2026316 98.9990366,26.5815789 97.6021195,25.4763158 C96.2052023,24.3710526 94.3705845,23.5421053 92.0982659,22.9894737 L86.7899807,21.7184211 C84.77842,21.2026316 82.9717405,20.5118421 81.3699422,19.6460526 C79.7681439,18.7802632 78.5016057,17.6565789 77.5703276,16.275 C76.6390495,14.8934211 76.1734104,13.1894737 76.1734104,11.1631579 C76.1734104,8.84210526 76.7508028,6.85263158 77.9055877,5.19473684 C79.0603725,3.53684211 80.6249197,2.25657895 82.5992293,1.35394737 C84.5735389,0.451315789 86.8272319,0 89.3603083,0 C91.8933847,0 93.9794477,0.386842105 95.6184971,1.16052632 C97.2575466,1.93421053 98.5613359,2.88289474 99.5298651,4.00657895 C100.498394,5.13026316 101.215478,6.26315789 101.681118,7.40526316 C102.146757,8.54736842 102.444766,9.50526316 102.575145,10.2789474 C102.705523,11.0526316 102.770713,11.4394737 102.770713,11.4394737 L98.5240848,11.4394737 C98.5240848,11.4394737 98.4868337,11.1815789 98.4123314,10.6657895 C98.3378292,10.15 98.1422608,9.51447368 97.8256262,8.75921053 C97.5089917,8.00394737 97.0154143,7.24868421 96.344894,6.49342105 C95.6743738,5.73815789 94.7617213,5.10263158 93.6069364,4.58684211 C92.4521516,4.07105263 90.9993577,3.81315789 89.2485549,3.81315789 C86.3429672,3.81315789 84.1451509,4.52236842 82.655106,5.94078947 C81.165061,7.35921053 80.4200385,9.00789474 80.4200385,10.8868421 C80.4200385,12.6184211 81.0253693,14 82.2360308,15.0315789 C83.4466924,16.0631579 85.1323057,16.8368421 87.2928709,17.3526316 L92.9364162,18.7342105 C95.0597303,19.25 96.9502248,19.9868421 98.6078998,20.9447368 C100.265575,21.9026316 101.578677,23.1368421 102.547206,24.6473684 C103.515735,26.1578947 104,27.9815789 104,30.1184211 C104,32.2552632 103.450546,34.2263158 102.351638,36.0315789 C101.25273,37.8368421 99.6695568,39.2828947 97.6021195,40.3697368 C95.5346821,41.4565789 93.029544,42 90.0867052,42 Z" id="Path"></path>
                    <polygon id="Path" points="108 42 108 1 112 1 112 42"></polygon>
                    <path d="M126.705539,1 L137,26.5972973 L150.294461,1 L156,1 L156,42 L151.790087,42 L151.790087,7.09459459 L138.994169,31.472973 L135.005831,31.472973 L124,5.686 L124,42 L120,42 L120,1 L126.705539,1 Z" id="Combined-Shape"></path>
                </g>
                <g id="OPEN">
                    <path d="M21.027668,42 C17.5230567,42 14.4611331,41.4013158 11.8418972,40.2039474 C9.2226614,39.0065789 7.03689065,37.4039474 5.28458498,35.3960526 C3.53227931,33.3881579 2.21343874,31.1315789 1.32806324,28.6263158 C0.442687747,26.1210526 0,23.5605263 0,20.9447368 C0,18.3289474 0.442687747,15.7776316 1.32806324,13.2907895 C2.21343874,10.8039474 3.53227931,8.56578947 5.28458498,6.57631579 C7.03689065,4.58684211 9.2226614,2.99342105 11.8418972,1.79605263 C14.4611331,0.598684211 17.5230567,0 21.027668,0 C24.4953887,0 27.5388669,0.598684211 30.1581028,1.79605263 C32.7773386,2.99342105 34.9631094,4.58684211 36.715415,6.57631579 C38.4677207,8.56578947 39.7865613,10.8039474 40.6719368,13.2907895 C41.5573123,15.7776316 42,18.3289474 42,20.9447368 C42,23.5605263 41.5573123,26.1210526 40.6719368,28.6263158 C39.7865613,31.1315789 38.4677207,33.3881579 36.715415,35.3960526 C34.9631094,37.4039474 32.7773386,39.0065789 30.1581028,40.2039474 C27.5388669,41.4013158 24.4953887,42 21.027668,42 Z M21.027668,33.4342105 C23.4255599,33.4342105 25.4453228,32.8263158 27.0869565,31.6105263 C28.7285903,30.3947368 29.9644269,28.8381579 30.7944664,26.9407895 C31.6245059,25.0434211 32.0395257,23.0447368 32.0395257,20.9447368 C32.0395257,18.8815789 31.6245059,16.9013158 30.7944664,15.0039474 C29.9644269,13.1065789 28.7285903,11.55 27.0869565,10.3342105 C25.4453228,9.11842105 23.4255599,8.51052632 21.027668,8.51052632 C18.5928854,8.51052632 16.5546772,9.11842105 14.9130435,10.3342105 C13.2714097,11.55 12.0447958,13.1065789 11.2332016,15.0039474 C10.4216074,16.9013158 10.0158103,18.8815789 10.0158103,20.9447368 C10.0158103,23.0447368 10.4216074,25.0434211 11.2332016,26.9407895 C12.0447958,28.8381579 13.2714097,30.3947368 14.9130435,31.6105263 C16.5546772,32.8263158 18.5928854,33.4342105 21.027668,33.4342105 Z" id="Shape"></path>
                    <path d="M45,42 L45,1 L62.6331658,1 C66.0603015,1 68.9162479,1.66486486 71.201005,2.99459459 C73.4857621,4.32432432 75.1901173,6.04189189 76.3140704,8.1472973 C77.4380235,10.2527027 78,12.4504505 78,14.7405405 C78,17.0675676 77.4380235,19.2837838 76.3140704,21.3891892 C75.1901173,23.4945946 73.4857621,25.2213964 71.201005,26.5695946 C68.9162479,27.9177928 66.0603015,28.5918919 62.6331658,28.5918919 L54.5628141,28.5918919 L54.5628141,42 L45,42 Z M62.5778894,9.36621622 L54.5628141,9.36621622 L54.5628141,20.2810811 L62.5778894,20.2810811 C64.5309883,20.2810811 65.9865997,19.7085586 66.9447236,18.5635135 C67.9028476,17.4184685 68.3819095,16.1626126 68.3819095,14.7959459 C68.3819095,13.4292793 67.9028476,12.1826577 66.9447236,11.0560811 C65.9865997,9.9295045 64.5309883,9.36621622 62.5778894,9.36621622 Z" id="Shape"></path>
                    <polygon id="Path" points="80 42 80 1 108.725379 1 108.725379 9.31081081 89.5018939 9.31081081 89.5018939 17.2337838 106.253788 17.2337838 106.253788 25.1567568 89.5018939 25.1567568 89.5018939 33.6891892 109 33.6891892 109 42"></polygon>
                    <polygon id="Path" points="112 42 112 1 120.889776 1 137.439297 25.4337838 137.439297 1 147 1 147 42 138.054313 42 121.616613 18.5081081 121.616613 42"></polygon>
                </g>
            </g>
            <g id="Emblem-/-Mono">
                <path d="M32.1836466,0 L44.7772473,6.99460727 L44.777,19.004 L54.403,25.133 L64.3672931,19.6 L76.9608939,26.5946074 L76.9608939,40.6053926 L64.3672931,47.6 L54.349,42.036 L44.777,47.748 L44.7772473,71.0555865 L22.3882957,84 L0,71.0332403 L0,45.1444133 L22.3882957,32.2 L43.297,44.288 L51.773,39.231 L51.773,27.872 L42.753,22.129 L32.1836466,28 L19.5900457,21.0053926 L19.5900457,6.99460727 L32.1836466,0 Z M22.3882957,36.32749 L3.58194363,47.2081583 L3.58194363,68.9688381 L22.3882957,79.8495064 L41.1946478,68.9688381 L41.1946478,47.2081583 L22.3882957,36.32749 Z M64.3672931,23.6058006 L55.3722403,28.6082929 L55.3722403,38.6132778 L64.3672931,43.6157702 L73.3623458,38.6132778 L73.3623458,28.6082929 L64.3672931,23.6058006 Z M32.1836466,3.98486422 L23.1885938,8.98672219 L23.1885938,18.9917071 L32.1836466,23.9941994 L41.1786993,18.9917071 L41.1786993,8.98672219 L32.1836466,3.98486422 Z" id="Emblem-Colour"></path>
            </g>
        </g>
    </g>
</svg>